<svg width="30" height="24" viewBox="0 0 30 24" fill="none" xmlns="http://www.w3.org/2000/svg">
<path d="M0 12.2296C0.146997 11.5277 0.56781 11.0046 1.08374 10.5377C1.30063 10.3417 1.49807 10.1241 1.70704 9.9187C2.69206 8.95097 4.07124 8.94592 5.05194 9.92085C6.77555 11.6351 8.49124 13.3573 10.2098 15.0758C10.2646 15.1306 10.3222 15.1832 10.4 15.2581C10.4851 15.1774 10.5687 15.1025 10.6479 15.0232C15.377 10.2948 20.1054 5.56571 24.8346 0.83731C25.9486 -0.276696 27.2773 -0.278857 28.3884 0.829385C28.6579 1.09816 28.9274 1.36693 29.1962 1.63714C30.2648 2.71152 30.2691 4.06187 29.202 5.1312C27.5814 6.75538 25.9579 8.37595 24.3359 9.99868C20.1112 14.2234 15.8865 18.4481 11.6618 22.6728C10.8209 23.5138 9.98643 23.5145 9.14624 22.6743C6.46787 19.9959 3.79382 17.3125 1.10752 14.6428C0.608884 14.1477 0.157085 13.6405 0 12.9321C0 12.6979 0 12.4638 0 12.2296Z" fill="#74CA8F"/>
</svg>
