<svg width="19" height="30" viewBox="0 0 19 30" fill="none" xmlns="http://www.w3.org/2000/svg">
<path d="M9.84283 0C10.4346 0.115071 11.0366 0.190219 11.6159 0.350693C15.2543 1.35972 17.9111 4.53946 18.2305 8.30159C18.4873 11.3287 17.465 13.8829 15.2363 15.9409C14.4621 16.6556 13.6332 17.31 12.8402 18.0059C12.7415 18.0928 12.6656 18.2619 12.664 18.3942C12.6492 19.3203 12.6562 20.2471 12.6562 21.1927C10.311 21.1927 7.98369 21.1927 5.62511 21.1927C5.62511 21.0831 5.62511 20.979 5.62511 20.8749C5.62511 18.9805 5.62903 17.0862 5.61963 15.1918C5.61885 14.9726 5.69009 14.8372 5.85291 14.6994C7.37545 13.4156 8.88938 12.1209 10.4096 10.8347C10.9474 10.3799 11.2534 9.81786 11.2472 9.1063C11.2378 7.97672 10.2976 7.04441 9.16572 7.03345C8.02753 7.02327 7.07329 7.92506 7.03493 9.05543C7.02397 9.36541 7.03337 9.67618 7.03337 10.0042C4.6881 10.0042 2.36788 10.0042 0.00852816 10.0042C0.00852816 9.55955 -0.0126044 9.10474 0.0116624 8.65228C0.255113 4.15119 3.74561 0.506472 8.24123 0.0501003C8.30699 0.0430551 8.37196 0.0187895 8.43693 0.00235069C8.90504 2.29341e-06 9.37394 0 9.84283 0Z" fill="#449DF0"/>
<path d="M12.6546 26.4813C12.6562 28.4195 11.0734 30.0015 9.13518 30C7.2001 29.9984 5.61963 28.4117 5.62354 26.4727C5.62746 24.5501 7.20558 22.9728 9.12813 22.9689C11.0695 22.9657 12.6539 24.5439 12.6546 26.4813Z" fill="#449DF0"/>
</svg>
