<svg width="27" height="30" viewBox="0 0 27 30" fill="none" xmlns="http://www.w3.org/2000/svg">
<path d="M14.3101 30C13.7635 30 13.2162 30 12.6696 30C12.5742 29.9824 12.4803 29.956 12.3842 29.9486C11.3776 29.8753 10.3842 29.7087 9.43481 29.3712C4.09442 27.4725 0.936706 23.7344 0.129668 18.1123C-0.289258 15.1923 0.320419 12.4271 1.76282 9.85045C1.85673 9.68318 1.94844 9.5159 2.05482 9.32442C1.7863 9.06616 1.52657 8.82992 1.28153 8.57827C0.356369 7.63037 0.349035 6.37506 1.26612 5.41762C1.63736 5.02951 2.01887 4.65166 2.40331 4.27602C3.36809 3.33252 4.64468 3.33619 5.60725 4.28482C5.8567 4.5306 6.09294 4.79106 6.34093 5.05005C8.27928 3.84463 10.3585 3.18725 12.594 3.02658C12.594 2.59004 12.594 2.1858 12.594 1.75733C12.1487 1.75733 11.7202 1.7698 11.2932 1.75366C10.809 1.73532 10.4458 1.34795 10.4458 0.87913C10.4465 0.411048 10.8104 0.0119313 11.2947 0.00826295C12.7591 -0.00347579 14.2242 -0.00200844 15.6894 0.00826295C16.0643 0.0111976 16.3357 0.218085 16.4744 0.56878C16.7004 1.13958 16.291 1.73605 15.6571 1.75586C15.2323 1.76907 14.8068 1.75807 14.3922 1.75807C14.3922 2.20854 14.3922 2.61353 14.3922 2.98623C15.1677 3.11976 15.9256 3.21 16.6622 3.38608C18.9586 3.93413 20.9696 5.02657 22.6901 6.64798C25.3525 9.15787 26.7839 12.2525 26.9475 15.8944C27.109 19.4806 25.9989 22.6655 23.6336 25.3771C21.5741 27.7381 18.9916 29.2135 15.9007 29.7748C15.3739 29.8709 14.8405 29.9259 14.3101 30ZM14.3688 7.40366C14.3688 7.50197 14.3688 7.59735 14.3688 7.69273C14.3688 8.20043 14.3746 8.70813 14.3658 9.21583C14.3585 9.65897 14.0782 10.0031 13.6798 10.0845C13.1164 10.1997 12.6256 9.80937 12.6138 9.21876C12.6021 8.61568 12.6109 8.01188 12.6109 7.4066C8.10614 7.78077 4.68649 11.6157 4.42678 15.623C4.53389 15.623 4.63881 15.6222 4.74446 15.623C5.26169 15.6259 5.77967 15.6127 6.29617 15.6369C6.75398 15.6582 7.09294 16.0368 7.09954 16.4858C7.10615 16.9216 6.79287 17.3082 6.34973 17.3544C6.00197 17.3904 5.64834 17.3764 5.29691 17.3809C5.00711 17.3845 4.71731 17.3816 4.42531 17.3816C4.72098 21.6237 8.38493 25.2964 12.6094 25.5804C12.6094 25.4733 12.6094 25.3669 12.6094 25.2612C12.6101 24.7535 12.5984 24.2458 12.6145 23.7388C12.6307 23.248 13.0085 22.8966 13.4861 22.8959C13.9638 22.8951 14.3335 23.2465 14.3636 23.7359C14.3724 23.8819 14.3666 24.0286 14.3666 24.1754C14.3666 24.6493 14.3666 25.1233 14.3666 25.6002C18.9711 25.1695 22.2682 21.3427 22.5529 17.3831C22.4377 17.3831 22.3232 17.3845 22.2088 17.3831C21.682 17.3765 21.1537 17.3919 20.6284 17.3552C20.2168 17.3266 19.9175 16.9825 19.8801 16.5782C19.8434 16.1908 20.076 15.8079 20.4509 15.6853C20.6042 15.6354 20.7766 15.6296 20.941 15.6274C21.4766 15.6208 22.0121 15.6252 22.5484 15.6252C22.3107 11.7169 18.974 7.80351 14.3688 7.40366Z" fill="#F7C844"/>
<path d="M14.4222 15.9942C14.847 15.9942 15.2263 15.9906 15.6057 15.995C16.1515 16.0016 16.5382 16.3713 16.5352 16.8754C16.5323 17.364 16.15 17.7411 15.624 17.7484C14.9409 17.758 14.2572 17.7587 13.5741 17.7484C13.0195 17.7396 12.6688 17.3772 12.6666 16.8167C12.6614 15.3721 12.6614 13.9275 12.6666 12.4829C12.668 11.9502 13.0305 11.5687 13.5228 11.5563C14.0136 11.5438 14.4149 11.9407 14.4193 12.4778C14.4288 13.532 14.4222 14.5863 14.423 15.6399C14.4222 15.7455 14.4222 15.8512 14.4222 15.9942Z" fill="#F7C844"/>
</svg>
