<?xml version="1.0" ?><svg enable-background="new 0 0 64 64" height="64px" version="1.1" viewBox="0 0 64 64" width="64px" xml:space="preserve" xmlns="http://www.w3.org/2000/svg" xmlns:xlink="http://www.w3.org/1999/xlink"><g id="_x31_-Call"/><g id="_x32_-24_Hours_Call"/><g id="_x33_-Sending_Call"/><g id="_x34_-Incoming_Call"/><g id="_x35_-Talk_On_Phone"/><g id="_x36_-Block_Call"/><g id="_x37_-Hold_Call"/><g id="_x38_-Mute_Call"/><g id="_x39_-Phone_Book"/><g id="_x31_0-Add_Contact"/><g id="_x31_1-Delete_Contact"/><g id="_x31_2-Mail"/><g id="_x31_3-Message_Read"/><g id="_x31_4-Email"/><g id="_x31_5-Send_Mail"/><g id="_x31_6-Important_Mail"/><g id="_x31_7-Mail_Chain"/><g id="_x31_8-Messaging"/><g id="_x31_9-Sending"/><g id="_x32_0-Chat"/><g id="_x32_1-Mail_Attachment"/><g id="_x32_2-Mobile_Link"/><g id="_x32_3-Smartphone"/><g id="_x32_4-Social_Media"/><g id="_x32_5-Support"/><g id="_x32_6-Links"/><g id="_x32_7-Phone"/><g id="_x32_8-Phone-2"/><g id="_x32_9-Map"/><g id="_x33_0-Location"/><g id="_x33_1-Write"/><g id="_x33_2-World"/><g id="_x33_3-Home"/><g id="_x33_4-Calendar"/><g id="_x33_5-Website"/><g id="_x33_6-Info"/><g id="_x33_7-Bull_Horn"/><g id="_x33_8-Profile"/><g id="_x33_9-Quote__x26__Answer"/><g id="_x34_0-Notification"/><g id="_x34_1-Share"/><g id="_x34_2-Time"><g><path d="M32,12.832489c-12.6821289,0-23,10.3173828-23,23s10.3178711,23,23,23s23-10.3173828,23-23    S44.6821289,12.832489,32,12.832489z M32,53.832489c-9.925293,0-18-8.0751953-18-18s8.074707-18,18-18s18,8.0751953,18,18    S41.925293,53.832489,32,53.832489z"/><path d="M32,27.0375671c-0.5522461,0-1,0.4472656-1,1v7.7949219c0,0.5527344,0.4477539,1,1,1s1-0.4472656,1-1v-7.7949219    C33,27.4848328,32.5522461,27.0375671,32,27.0375671z"/><path d="M27.9299927,11.167511C29.25,10.9375305,30.6099854,10.8274841,32,10.8274841    c1.3800049,0,2.7399902,0.1100464,4.0599976,0.3400269C37.6799927,11.1375427,39,9.7975159,39,8.167511    c0-0.8200073-0.3200073-1.5700073-0.8800049-2.1199951C37.5499878,5.4775085,36.7999878,5.167511,36,5.167511h-8    c-1.6500244,0-3,1.3400269-3,3c0,0.7999878,0.3099976,1.5499878,0.8800049,2.1199951    C26.4299927,10.8374939,27.1599731,11.1474915,27.9299927,11.167511z"/><circle cx="32" cy="23.39505" r="1"/><circle cx="40.7946472" cy="27.0379028" r="1.0000226"/><circle cx="44.4375" cy="35.83255" r="1"/><circle cx="40.7946472" cy="44.6271667" r="1.0000011"/><circle cx="32" cy="48.27005" r="1"/><circle cx="23.2053528" cy="44.6271667" r="1.0000011"/><circle cx="19.5625" cy="35.83255" r="1"/><circle cx="23.2053528" cy="27.0379028" r="1.0000226"/><path d="M52.2800293,21.2174988l0.1599731-0.1599731c0.75-0.7600098,1.1699829-1.7700195,1.1699829-2.8400269    c0-1.0799561-0.4199829-2.0899658-1.1699829-2.8299561c-0.7600098-0.75-1.7600098-1.1700439-2.8300171-1.1700439    s-2.0700073,0.4200439-2.8299561,1.1700439l-0.1700439,0.1699829    C48.789978,17.127533,50.7000122,19.0375061,52.2800293,21.2174988z"/></g></g></svg>